<svg width="500" height="336" viewBox="0 0 500 336" fill="none" xmlns="http://www.w3.org/2000/svg">
<path d="M64.6733 312.088C55.7029 302.286 56.3284 286.949 66.067 277.911L428.02 -58.0102C431.514 -61.2486 435.881 -63.3738 440.571 -64.1182C445.262 -64.8625 450.065 -64.1928 454.376 -62.1932C458.688 -60.1936 462.314 -56.9537 464.799 -52.8816C467.284 -48.8095 468.517 -44.0872 468.341 -39.3097C468.09 -33.1506 465.44 -27.0894 460.571 -22.5703L98.6183 313.351C88.8747 322.51 73.6437 321.889 64.6733 312.088ZM203.878 26.9612C202.804 53.2881 191.781 79.0883 171.055 98.3235C129.729 136.678 64.9667 134.037 26.9001 92.4449C-11.1665 50.8527 -8.50709 -14.3607 32.8197 -52.7153C52.8013 -71.376 78.8995 -80.9568 106.124 -79.8466C133.348 -78.7364 158.579 -67.0624 176.975 -46.8367C186.072 -36.9332 193.133 -25.314 197.75 -12.6485C202.367 0.0171078 204.45 13.4788 203.878 26.9612ZM65.366 -17.1546C54.3788 -6.95759 48.5356 6.71526 47.9692 20.6033C47.4029 34.4913 52.1134 48.5946 62.2338 59.6523C71.9529 70.216 85.4322 76.4731 99.7251 77.056C114.018 77.6388 127.962 72.5 138.509 62.7628C160.363 42.3639 161.767 7.94573 141.641 -14.0441C131.866 -24.7249 118.545 -30.9535 104.154 -31.5404C89.7621 -32.1273 75.9786 -27.0039 65.366 -17.1546ZM355.578 157.138C396.904 118.783 461.666 121.424 499.733 163.017C518.824 183.875 527.709 210.488 526.635 236.814C525.562 263.141 514.539 288.941 493.813 308.177C473.712 326.833 447.733 336.418 420.509 335.308C393.285 334.198 368.054 322.524 349.658 302.298C311.471 260.701 314.126 195.608 355.578 157.138ZM461.267 272.616C483.116 252.338 484.525 217.799 464.399 195.809C444.273 173.819 409.973 172.421 388.124 192.699C377.137 202.896 371.293 216.569 370.727 230.457C370.161 244.345 374.871 258.448 384.992 269.506C394.767 280.186 408.088 286.415 422.479 287.002C436.871 287.589 450.654 282.465 461.267 272.616Z" fill="white" fill-opacity="0.6"/>
</svg>
