<svg width="296" height="255" viewBox="0 0 296 255" fill="none" xmlns="http://www.w3.org/2000/svg">
<path d="M39.5735 239.875C34.0846 233.878 34.4673 224.493 40.4263 218.963L261.903 13.4147C264.041 11.4331 266.713 10.1327 269.583 9.67727C272.453 9.2218 275.392 9.63163 278.03 10.8551C280.668 12.0787 282.887 14.0611 284.408 16.5529C285.928 19.0446 286.683 21.9341 286.575 24.8574C286.421 28.6261 284.8 32.3349 281.82 35.1001L60.3442 240.648C54.3822 246.252 45.0624 245.872 39.5735 239.875ZM124.752 65.4081C124.095 81.5173 117.35 97.3043 104.668 109.074C79.3804 132.543 39.753 130.927 16.4603 105.477C-6.83234 80.0272 -5.20508 40.1235 20.0825 16.6546C32.3091 5.23626 48.2784 -0.626155 64.9366 0.0531587C81.5948 0.732472 97.0338 7.87571 108.29 20.2517C113.857 26.3116 118.177 33.4213 121.002 41.1712C123.827 48.9212 125.102 57.1583 124.752 65.4081ZM39.9973 38.414C33.2744 44.6534 29.6989 53.0198 29.3524 61.5178C29.0058 70.0158 31.8882 78.6454 38.0808 85.4116C44.0278 91.8754 52.2757 95.7041 61.0215 96.0608C69.7672 96.4174 78.2995 93.273 84.753 87.3149C98.1256 74.8329 98.9845 53.7727 86.6696 40.3173C80.6881 33.7818 72.5373 29.9705 63.7312 29.6114C54.9252 29.2523 46.4911 32.3872 39.9973 38.414ZM217.576 145.062C242.863 121.593 282.491 123.209 305.783 148.659C317.465 161.423 322.902 177.707 322.245 193.816C321.588 209.925 314.843 225.712 302.161 237.482C289.861 248.897 273.965 254.763 257.307 254.083C240.649 253.404 225.21 246.261 213.954 233.885C190.588 208.432 192.212 168.602 217.576 145.062ZM282.246 215.723C295.616 203.315 296.478 182.18 284.163 168.725C271.848 155.27 250.86 154.414 237.491 166.822C230.768 173.061 227.192 181.428 226.846 189.926C226.499 198.424 229.382 207.053 235.574 213.819C241.556 220.355 249.706 224.166 258.512 224.525C267.319 224.884 275.753 221.749 282.246 215.723Z" fill="white" fill-opacity="0.6"/>
</svg>
