<svg width="42" height="16" viewBox="0 0 42 16" fill="none" xmlns="http://www.w3.org/2000/svg">
<g clip-path="url(#clip0_747_631)">
<path d="M15.9583 5.82491C15.9071 5.66635 15.8104 5.52637 15.6802 5.42239C15.5501 5.31842 15.3922 5.25506 15.2262 5.24021L10.6082 4.82085L8.78209 0.546681C8.6474 0.233454 8.34077 0.0307617 8.00007 0.0307617C7.65937 0.0307617 7.35271 0.233486 7.21808 0.547462L5.39197 4.82088L0.7732 5.24021C0.607451 5.25539 0.449802 5.31888 0.3198 5.42282C0.189799 5.52676 0.0931609 5.66656 0.0418688 5.82491C-0.0634776 6.14892 0.0338061 6.50427 0.290531 6.72827L3.78125 9.7896L2.75191 14.3238C2.67659 14.6572 2.80597 15.0018 3.0826 15.2017C3.23126 15.3092 3.40524 15.3639 3.58065 15.3639C3.7319 15.3639 3.8819 15.3231 4.01659 15.2425L8.00007 12.8617L11.9821 15.2425C12.2735 15.4178 12.6408 15.4018 12.9168 15.2017C13.0519 15.1039 13.1553 14.9686 13.2141 14.8125C13.2729 14.6564 13.2845 14.4864 13.2475 14.3238L12.2182 9.7896L15.7089 6.7289C15.8345 6.61923 15.925 6.47508 15.9694 6.31436C16.0137 6.15365 16.0099 5.98345 15.9583 5.82491Z" fill="#FFC107"/>
</g>
<path d="M25.4918 13.5V11.834H21.0258V10.259L24.2528 3.42H26.1778L22.9508 10.259H25.4918V7.634H27.1998V10.259H28.1448V11.834H27.1998V13.5H25.4918ZM29.97 13.5V11.771H31.699V13.5H29.97ZM37.3789 13.71C36.7116 13.71 36.1189 13.5747 35.6009 13.304C35.0829 13.0333 34.6769 12.6577 34.3829 12.177C34.0889 11.6963 33.9419 11.1457 33.9419 10.525C33.9419 9.96967 34.0702 9.454 34.3269 8.978C34.5836 8.502 34.9592 8.12167 35.4539 7.837L35.4189 8.376C35.0316 8.082 34.7306 7.74367 34.5159 7.361C34.3059 6.97367 34.2009 6.53967 34.2009 6.059C34.2009 5.48033 34.3362 4.97867 34.6069 4.554C34.8822 4.12933 35.2579 3.80033 35.7339 3.567C36.2099 3.329 36.7582 3.21 37.3789 3.21C37.9996 3.21 38.5479 3.329 39.0239 3.567C39.5046 3.80033 39.8802 4.12933 40.1509 4.554C40.4262 4.97867 40.5639 5.48033 40.5639 6.059C40.5639 6.53967 40.4612 6.97133 40.2559 7.354C40.0552 7.73667 39.7496 8.082 39.3389 8.39L39.3319 7.844C39.8172 8.11933 40.1882 8.49733 40.4449 8.978C40.7062 9.454 40.8369 9.96967 40.8369 10.525C40.8369 11.1457 40.6876 11.6963 40.3889 12.177C40.0949 12.6577 39.6866 13.0333 39.1639 13.304C38.6459 13.5747 38.0509 13.71 37.3789 13.71ZM37.3789 12.121C37.8736 12.121 38.2749 11.9857 38.5829 11.715C38.8956 11.4443 39.0519 11.0477 39.0519 10.525C39.0519 10.0023 38.8979 9.60567 38.5899 9.335C38.2819 9.05967 37.8782 8.922 37.3789 8.922C36.8842 8.922 36.4852 9.05967 36.1819 9.335C35.8786 9.60567 35.7269 10.0023 35.7269 10.525C35.7269 11.0477 35.8786 11.4443 36.1819 11.715C36.4852 11.9857 36.8842 12.121 37.3789 12.121ZM37.3789 7.319C37.7942 7.319 38.1302 7.21633 38.3869 7.011C38.6482 6.801 38.7789 6.48367 38.7789 6.059C38.7789 5.63433 38.6482 5.31933 38.3869 5.114C38.1302 4.904 37.7942 4.799 37.3789 4.799C36.9682 4.799 36.6322 4.904 36.3709 5.114C36.1142 5.31933 35.9859 5.63433 35.9859 6.059C35.9859 6.48367 36.1142 6.801 36.3709 7.011C36.6322 7.21633 36.9682 7.319 37.3789 7.319Z" fill="#253164"/>
<defs>
<clipPath id="clip0_747_631">
<rect width="16" height="16" fill="white"/>
</clipPath>
</defs>
</svg>
