<svg width="56" height="18" viewBox="0 0 56 18" fill="none" xmlns="http://www.w3.org/2000/svg">
<g clip-path="url(#clip0_747_622)">
<g clip-path="url(#clip1_747_622)">
<path d="M0 0H18.1384V18H0V0Z" fill="#19AA1E"/>
<path fill-rule="evenodd" clip-rule="evenodd" d="M0 0H18.1384V5.90608L0 3.09392V0Z" fill="#FFB919"/>
<path fill-rule="evenodd" clip-rule="evenodd" d="M0 16.0275L18.1384 13.2153V17.9943H0V16.0275Z" fill="#82D714"/>
<path fill-rule="evenodd" clip-rule="evenodd" d="M0 2.74023L6.3336 3.72366C7.1232 3.22642 8.0584 2.9557 9.072 2.9557C10.472 2.9557 11.732 3.47504 12.6504 4.39217C12.768 4.50819 12.8744 4.62974 12.9752 4.75128L18.1384 5.55239V6.2651L13.496 5.54686C13.8432 6.20432 14.028 6.93913 14.028 7.67946C14.028 8.64631 13.8096 9.60764 13.3616 10.569L13.3504 10.5966L13.16 10.9999H12.7064C11.7768 10.9999 11.1552 11.2761 10.752 11.7679C10.4328 12.1546 10.2536 12.6739 10.192 13.2375V13.254L10.1808 13.3424L10.1752 13.3811L10.1696 13.4585C10.1472 13.7126 10.1304 13.9226 10.1248 14.0994L18.144 12.8563V13.569L0 16.3866V15.6739L8.0304 14.4308L8.0248 14.2706V14.2264V14.2043V14.1712C8.0136 13.9226 7.9968 13.6739 7.9688 13.4253L7.9632 13.3701L7.952 13.2706C7.896 12.7016 7.7112 12.1767 7.3976 11.7844C7 11.2927 6.384 11.011 5.46 11.0054H4.984L4.7936 10.6021C4.3344 9.62421 4.1104 8.65736 4.1104 7.67946C4.1104 6.45294 4.6088 5.27062 5.4936 4.39217C5.5216 4.36454 5.544 4.34244 5.572 4.31482L0 3.44742V2.74023Z" fill="white"/>
<path fill-rule="evenodd" clip-rule="evenodd" d="M9.07241 3.65723C11.6036 3.65723 13.3228 5.59093 13.3228 7.67933C13.3228 8.51911 13.138 9.38651 12.7068 10.3036C10.2148 10.3036 9.59881 12.0771 9.48121 13.1876L9.47561 13.2594C9.43641 13.6572 9.41401 13.9777 9.40841 14.2152L8.73081 14.3202V14.2981C8.73081 14.044 8.70281 13.6904 8.65801 13.2373V13.2152C8.55161 12.1047 7.94681 10.2981 5.43241 10.2981C5.00121 9.38651 4.81641 8.51358 4.81641 7.6738C4.81641 5.59093 6.53561 3.65723 9.07241 3.65723Z" fill="#0073FA"/>
</g>
<path fill-rule="evenodd" clip-rule="evenodd" d="M26.6848 4.40869C24.4952 4.40869 22.86 5.75123 22.8712 8.08825H24.904C24.876 7.15455 25.464 6.24847 26.6848 6.24847C27.6088 6.24847 28.1968 6.87278 28.1968 7.66284C28.1968 8.48604 27.5528 8.93908 26.5168 9.44737C25.156 10.1103 24.344 10.4253 22.8712 10.917V13.6076H30.4424V11.7678H25.6208C26.3208 11.4695 27.0096 11.149 27.6256 10.8507C29.2664 10.0606 30.2352 9.1656 30.2352 7.56891C30.2352 5.64074 28.8016 4.40869 26.6848 4.40869ZM33.528 6.39212H37.4536V4.55234H31.568V13.6076H33.528V6.39212ZM40.5392 4.55234H38.5792V13.6076H40.528L44.1848 7.82306V13.6076H46.1448V4.55234H44.1848L40.5392 10.3369V4.55234ZM56.0008 10.2098H53.968C53.66 11.2153 52.7192 11.9059 51.6103 11.9059C49.9975 11.9059 48.9448 10.5026 48.9448 9.0772C48.9448 7.65179 49.9695 6.24847 51.6663 6.24847C52.7864 6.24847 53.6544 6.9446 53.968 7.9446H56.0008C55.704 5.9225 54.1248 4.40869 51.6103 4.40869C48.8328 4.40869 46.9848 6.37554 46.9848 9.0772C46.9848 11.7789 48.8328 13.7457 51.6103 13.7457C54.1248 13.7512 55.704 12.265 56.0008 10.2098Z" fill="#262626"/>
</g>
<defs>
<clipPath id="clip0_747_622">
<rect width="56" height="18" fill="white"/>
</clipPath>
<clipPath id="clip1_747_622">
<rect width="18.144" height="18" rx="4" fill="white"/>
</clipPath>
</defs>
</svg>
