<svg width="55" height="18" viewBox="0 0 55 18" fill="none" xmlns="http://www.w3.org/2000/svg">
<g clip-path="url(#clip0_747_600)">
<path d="M23.4044 9.23068C23.4044 11.7292 21.3844 13.5702 18.9053 13.5702C16.4263 13.5702 14.4062 11.7292 14.4062 9.23068C14.4062 6.71459 16.4263 4.89111 18.9053 4.89111C21.3844 4.89111 23.4044 6.71459 23.4044 9.23068ZM21.4349 9.23068C21.4349 7.66937 20.2642 6.60111 18.9053 6.60111C17.5465 6.60111 16.3757 7.66937 16.3757 9.23068C16.3757 10.7763 17.5465 11.8602 18.9053 11.8602C20.2642 11.8602 21.4349 10.7744 21.4349 9.23068Z" fill="#EA4335"/>
<path d="M33.1114 9.23068C33.1114 11.7292 31.0914 13.5702 28.6124 13.5702C26.1333 13.5702 24.1133 11.7292 24.1133 9.23068C24.1133 6.71655 26.1333 4.89111 28.6124 4.89111C31.0914 4.89111 33.1114 6.71459 33.1114 9.23068ZM31.142 9.23068C31.142 7.66937 29.9712 6.60111 28.6124 6.60111C27.2535 6.60111 26.0828 7.66937 26.0828 9.23068C26.0828 10.7763 27.2535 11.8602 28.6124 11.8602C29.9712 11.8602 31.142 10.7744 31.142 9.23068Z" fill="#FBBC05"/>
<path d="M42.4122 5.15329V12.9442C42.4122 16.1489 40.4589 17.4579 38.1497 17.4579C35.976 17.4579 34.6678 16.0511 34.1744 14.9007L35.8891 14.21C36.1944 14.9163 36.9426 15.7498 38.1477 15.7498C39.6259 15.7498 40.5418 14.8674 40.5418 13.2063V12.5822H40.4731C40.0323 13.1085 39.183 13.5683 38.1113 13.5683C35.8689 13.5683 33.8145 11.6783 33.8145 9.24633C33.8145 6.79676 35.8689 4.89111 38.1113 4.89111C39.181 4.89111 40.0303 5.3509 40.4731 5.86155H40.5418V5.15524H42.4122V5.15329ZM40.6814 9.24633C40.6814 7.71829 39.6279 6.60111 38.2872 6.60111C36.9284 6.60111 35.79 7.71829 35.79 9.24633C35.79 10.7587 36.9284 11.8602 38.2872 11.8602C39.6279 11.8602 40.6814 10.7587 40.6814 9.24633Z" fill="#4285F4"/>
<path d="M45.4971 0.586914V13.3043H43.5762V0.586914H45.4971Z" fill="#34A853"/>
<path d="M52.9829 10.6589L54.5115 11.645C54.0182 12.3513 52.8292 13.5683 50.7748 13.5683C48.227 13.5683 46.3242 11.6626 46.3242 9.22872C46.3242 6.64807 48.2432 4.88916 50.5544 4.88916C52.8818 4.88916 54.0202 6.68133 54.3922 7.64981L54.5965 8.14286L48.6011 10.5455C49.0601 11.4161 49.7739 11.8602 50.7748 11.8602C51.7777 11.8602 52.4733 11.3829 52.9829 10.6589ZM48.2775 9.09764L52.2853 7.48742C52.0648 6.94546 51.4016 6.56786 50.6211 6.56786C49.6202 6.56786 48.227 7.42286 48.2775 9.09764Z" fill="#EA4335"/>
<path d="M7.13727 8.1018V6.26071H13.5492C13.6119 6.58158 13.6443 6.96114 13.6443 7.37201C13.6443 8.75332 13.254 10.4614 11.9963 11.6783C10.7729 12.9109 9.20988 13.5683 7.13929 13.5683C3.30142 13.5683 0.0742188 10.5435 0.0742188 6.83006C0.0742188 3.11658 3.30142 0.0917969 7.13929 0.0917969C9.26245 0.0917969 10.775 0.897884 11.9114 1.94854L10.5687 3.24767C9.75381 2.5081 8.64977 1.93288 7.13727 1.93288C4.3347 1.93288 2.14279 4.11832 2.14279 6.83006C2.14279 9.5418 4.3347 11.7272 7.13727 11.7272C8.9551 11.7272 9.9904 11.0209 10.6536 10.3792C11.1915 9.85875 11.5454 9.11527 11.6849 8.09984L7.13727 8.1018Z" fill="#4285F4"/>
</g>
<defs>
<clipPath id="clip0_747_600">
<rect width="55" height="18" fill="white"/>
</clipPath>
</defs>
</svg>
