<svg width="42" height="16" viewBox="0 0 42 16" fill="none" xmlns="http://www.w3.org/2000/svg">
<g clip-path="url(#clip0_747_607)">
<path d="M15.9583 5.82491C15.9071 5.66635 15.8104 5.52637 15.6802 5.42239C15.5501 5.31842 15.3922 5.25506 15.2262 5.24021L10.6082 4.82085L8.78209 0.546681C8.6474 0.233454 8.34077 0.0307617 8.00007 0.0307617C7.65937 0.0307617 7.35271 0.233486 7.21808 0.547462L5.39197 4.82088L0.7732 5.24021C0.607451 5.25539 0.449802 5.31888 0.3198 5.42282C0.189799 5.52676 0.0931609 5.66656 0.0418688 5.82491C-0.0634776 6.14892 0.0338061 6.50427 0.290531 6.72827L3.78125 9.7896L2.75191 14.3238C2.67659 14.6572 2.80597 15.0018 3.0826 15.2017C3.23126 15.3092 3.40524 15.3639 3.58065 15.3639C3.7319 15.3639 3.8819 15.3231 4.01659 15.2425L8.00007 12.8617L11.9821 15.2425C12.2735 15.4178 12.6408 15.4018 12.9168 15.2017C13.0519 15.1039 13.1553 14.9686 13.2141 14.8125C13.2729 14.6564 13.2845 14.4864 13.2475 14.3238L12.2182 9.7896L15.7089 6.7289C15.8345 6.61923 15.925 6.47508 15.9694 6.31436C16.0137 6.15365 16.0099 5.98345 15.9583 5.82491Z" fill="#FFC107"/>
</g>
<path d="M25.4303 13.5V11.834H20.9643V10.259L24.1913 3.42H26.1163L22.8893 10.259H25.4303V7.634H27.1383V10.259H28.0833V11.834H27.1383V13.5H25.4303ZM29.9084 13.5V11.771H31.6374V13.5H29.9084ZM37.2754 3.224C37.9334 3.224 38.5261 3.38033 39.0534 3.693C39.5807 4.001 39.9961 4.43033 40.2994 4.981C40.6074 5.527 40.7614 6.157 40.7614 6.871V9.944C40.7614 10.7047 40.6074 11.3697 40.2994 11.939C39.9961 12.5037 39.5691 12.94 39.0184 13.248C38.4677 13.556 37.8237 13.71 37.0864 13.71C36.5777 13.71 36.0971 13.6237 35.6444 13.451C35.1917 13.2737 34.7857 13.003 34.4264 12.639L35.6374 11.456C35.8194 11.666 36.0364 11.8317 36.2884 11.953C36.5451 12.0697 36.8111 12.128 37.0864 12.128C37.4784 12.128 37.8214 12.037 38.1154 11.855C38.4094 11.6683 38.6381 11.428 38.8014 11.134C38.9647 10.8353 39.0464 10.5157 39.0464 10.175V8.502L39.3474 8.838C39.0627 9.174 38.7174 9.43767 38.3114 9.629C37.9054 9.81567 37.4784 9.909 37.0304 9.909C36.4004 9.909 35.8404 9.76433 35.3504 9.475C34.8651 9.18567 34.4824 8.79367 34.2024 8.299C33.9271 7.79967 33.7894 7.235 33.7894 6.605C33.7894 5.975 33.9481 5.40567 34.2654 4.897C34.5827 4.38367 35.0051 3.97767 35.5324 3.679C36.0644 3.37567 36.6454 3.224 37.2754 3.224ZM37.2754 4.834C36.9487 4.834 36.6501 4.91333 36.3794 5.072C36.1087 5.23067 35.8941 5.44533 35.7354 5.716C35.5767 5.982 35.4974 6.27833 35.4974 6.605C35.4974 6.93167 35.5744 7.23033 35.7284 7.501C35.8871 7.77167 36.0994 7.98633 36.3654 8.145C36.6361 8.30367 36.9347 8.383 37.2614 8.383C37.5881 8.383 37.8867 8.30367 38.1574 8.145C38.4281 7.98633 38.6427 7.77167 38.8014 7.501C38.9647 7.23033 39.0464 6.93167 39.0464 6.605C39.0464 6.28767 38.9671 5.996 38.8084 5.73C38.6497 5.45933 38.4351 5.24233 38.1644 5.079C37.8984 4.91567 37.6021 4.834 37.2754 4.834Z" fill="#253164"/>
<defs>
<clipPath id="clip0_747_607">
<rect width="16" height="16" fill="white"/>
</clipPath>
</defs>
</svg>
