<svg width="42" height="16" viewBox="0 0 42 16" fill="none" xmlns="http://www.w3.org/2000/svg">
<g clip-path="url(#clip0_747_616)">
<path d="M15.9583 5.82491C15.9071 5.66635 15.8104 5.52637 15.6802 5.42239C15.5501 5.31842 15.3922 5.25506 15.2262 5.24021L10.6082 4.82085L8.78209 0.546681C8.6474 0.233454 8.34077 0.0307617 8.00007 0.0307617C7.65937 0.0307617 7.35271 0.233486 7.21808 0.547462L5.39197 4.82088L0.7732 5.24021C0.607451 5.25539 0.449802 5.31888 0.3198 5.42282C0.189799 5.52676 0.0931609 5.66656 0.0418688 5.82491C-0.0634776 6.14892 0.0338061 6.50427 0.290531 6.72827L3.78125 9.7896L2.75191 14.3238C2.67659 14.6572 2.80597 15.0018 3.0826 15.2017C3.23126 15.3092 3.40524 15.3639 3.58065 15.3639C3.7319 15.3639 3.8819 15.3231 4.01659 15.2425L8.00007 12.8617L11.9821 15.2425C12.2735 15.4178 12.6408 15.4018 12.9168 15.2017C13.0519 15.1039 13.1553 14.9686 13.2141 14.8125C13.2729 14.6564 13.2845 14.4864 13.2475 14.3238L12.2182 9.7896L15.7089 6.7289C15.8345 6.61923 15.925 6.47508 15.9694 6.31436C16.0137 6.15365 16.0099 5.98345 15.9583 5.82491Z" fill="#FFC107"/>
</g>
<path d="M23.994 13.71C23.4807 13.71 23.0024 13.605 22.559 13.395C22.1157 13.1803 21.733 12.8863 21.411 12.513C21.0937 12.1397 20.865 11.7057 20.725 11.211L22.349 10.777C22.4144 11.0477 22.5334 11.281 22.706 11.477C22.8834 11.673 23.0887 11.8247 23.322 11.932C23.56 12.0393 23.805 12.093 24.057 12.093C24.3837 12.093 24.6824 12.0137 24.953 11.855C25.2237 11.6963 25.4384 11.484 25.597 11.218C25.7557 10.9473 25.835 10.6487 25.835 10.322C25.835 9.99533 25.7534 9.699 25.59 9.433C25.4314 9.16233 25.2167 8.95 24.946 8.796C24.6754 8.63733 24.379 8.558 24.057 8.558C23.6697 8.558 23.3477 8.628 23.091 8.768C22.839 8.908 22.6454 9.05733 22.51 9.216L21.068 8.754L21.376 3.42H26.85V5.002H22.279L22.909 4.407L22.685 8.117L22.377 7.739C22.6384 7.501 22.9417 7.32367 23.287 7.207C23.6324 7.09033 23.966 7.032 24.288 7.032C24.918 7.032 25.4757 7.17667 25.961 7.466C26.451 7.75067 26.8337 8.14033 27.109 8.635C27.389 9.12967 27.529 9.692 27.529 10.322C27.529 10.952 27.3657 11.5237 27.039 12.037C26.7124 12.5457 26.2807 12.9517 25.744 13.255C25.212 13.5583 24.6287 13.71 23.994 13.71ZM29.6282 13.5V11.771H31.3572V13.5H29.6282ZM37.3661 13.71C36.6521 13.71 36.0221 13.5583 35.4761 13.255C34.9301 12.947 34.5031 12.52 34.1951 11.974C33.8918 11.428 33.7401 10.798 33.7401 10.084V6.836C33.7401 6.122 33.8918 5.492 34.1951 4.946C34.5031 4.4 34.9301 3.97533 35.4761 3.672C36.0221 3.364 36.6521 3.21 37.3661 3.21C38.0801 3.21 38.7078 3.364 39.2491 3.672C39.7951 3.97533 40.2221 4.4 40.5301 4.946C40.8381 5.492 40.9921 6.122 40.9921 6.836V10.084C40.9921 10.798 40.8381 11.428 40.5301 11.974C40.2221 12.52 39.7951 12.947 39.2491 13.255C38.7078 13.5583 38.0801 13.71 37.3661 13.71ZM37.3661 12.107C37.7208 12.107 38.0428 12.023 38.3321 11.855C38.6215 11.6823 38.8501 11.4537 39.0181 11.169C39.1861 10.8797 39.2701 10.5577 39.2701 10.203V6.71C39.2701 6.35067 39.1861 6.02867 39.0181 5.744C38.8501 5.45467 38.6215 5.226 38.3321 5.058C38.0428 4.88533 37.7208 4.799 37.3661 4.799C37.0115 4.799 36.6895 4.88533 36.4001 5.058C36.1108 5.226 35.8821 5.45467 35.7141 5.744C35.5461 6.02867 35.4621 6.35067 35.4621 6.71V10.203C35.4621 10.5577 35.5461 10.8797 35.7141 11.169C35.8821 11.4537 36.1108 11.6823 36.4001 11.855C36.6895 12.023 37.0115 12.107 37.3661 12.107Z" fill="#253164"/>
<defs>
<clipPath id="clip0_747_616">
<rect width="16" height="16" fill="white"/>
</clipPath>
</defs>
</svg>
