<svg width="60" height="18" viewBox="0 0 60 18" fill="none" xmlns="http://www.w3.org/2000/svg">
<g clip-path="url(#clip0_747_613)">
<path d="M57.2036 15.6737C58.3807 15.6737 59.2145 15.4529 59.8358 14.9775V12.8209C59.1982 13.2793 58.4298 13.568 57.3508 13.568C55.5361 13.568 54.784 12.1077 54.784 9.79822C54.784 7.36992 55.6995 6.13029 57.3671 6.13029C58.348 6.13029 59.3126 6.4869 59.8194 6.82652V4.58501C59.2799 4.27935 58.348 4.05859 57.0728 4.05859C53.8194 4.05859 52.1355 6.4869 52.1355 9.88312C52.1519 13.602 53.8031 15.6737 57.2036 15.6737ZM41.2963 14.6888V12.5322C40.5115 13.0926 39.1709 13.585 37.9448 13.585C36.081 13.585 35.378 12.668 35.2636 10.8001H41.4107V9.40765C41.4107 5.51897 39.7595 4.05859 37.2254 4.05859C34.1192 4.05859 32.6478 6.52086 32.6478 9.9001C32.6478 13.7888 34.4952 15.6737 37.7322 15.6737C39.3508 15.6737 40.5442 15.2152 41.2963 14.6888ZM17.9666 4.26237V8.67746H14.566V4.26237H12.0156V15.4529H14.566V10.7831H17.9666V15.4529H20.517V4.26237H17.9666ZM32.0102 13.3473H30.8821V4.26237H23.4598V5.21331C23.4598 7.94727 23.2963 11.4793 22.3971 13.3473H21.5797V18.0001H23.9339V15.4529H29.6396V18.0001H31.9938V13.3473H32.0102ZM49.4216 15.4529H52.3153L48.2282 9.42463L51.8249 4.26237H49.2581L45.6614 9.42463V4.26237H43.111V15.4529H45.6614V9.95105L49.4216 15.4529ZM37.16 6.13029C38.4189 6.13029 38.8113 7.21708 38.8113 8.62652V8.84727H35.2636C35.329 7.06425 35.9502 6.13029 37.16 6.13029ZM28.3317 13.3473H24.735C25.438 11.6661 25.6342 8.60954 25.6342 6.67369V6.33407H28.3317V13.3473Z" fill="#424242"/>
<path d="M9.89101 15.4528H7.29155V2.08868H6.13079C4.00545 2.08868 2.89373 3.19245 2.89373 4.83962C2.89373 6.70755 3.66213 7.57358 5.24796 8.67736L6.55586 9.59434L2.79564 15.4528H0L3.3842 10.2226C1.43869 8.77925 0.343324 7.36981 0.343324 4.99245C0.343324 2.02075 2.33788 0 6.11444 0H9.87466V15.4528H9.89101Z" fill="#FC3F1D"/>
</g>
<defs>
<clipPath id="clip0_747_613">
<rect width="60" height="18" fill="white"/>
</clipPath>
</defs>
</svg>
