<svg width="139" height="144" viewBox="0 0 139 144" fill="none" xmlns="http://www.w3.org/2000/svg">
<path d="M135.412 64.3008C126.974 64.3239 117.767 61.2771 112.513 55.1373C107.232 61.295 98.043 64.3623 89.5841 64.3008C88.654 64.3008 87.7238 64.2726 86.791 64.1855V90.0206C86.8206 97.5579 89.429 104.858 94.1827 110.707C98.9364 116.556 105.549 120.602 112.921 122.172C120.106 120.431 126.501 116.332 131.084 110.531C135.667 104.73 138.174 97.5599 138.205 90.1667V64.183C137.276 64.2645 136.344 64.3039 135.412 64.3008ZM130.61 80.829L109.226 98.8382C108.677 99.2919 107.981 99.5304 107.269 99.5092C106.557 99.488 105.877 99.2085 105.356 98.7229L94.2709 88.3345C93.9795 88.0762 93.7427 87.762 93.5748 87.4105C93.4068 87.0591 93.311 86.6775 93.2931 86.2885C93.2751 85.8994 93.3354 85.5106 93.4703 85.1452C93.6052 84.7798 93.8119 84.4452 94.0784 84.161C94.3449 83.8769 94.6656 83.6491 95.0216 83.4911C95.3776 83.3331 95.7617 83.2481 96.1511 83.2411C96.5406 83.2341 96.9275 83.3052 97.289 83.4503C97.6504 83.5954 97.9791 83.8116 98.2556 84.0859L107.45 92.7292L126.858 76.3753C127.449 75.8779 128.213 75.6354 128.982 75.7012C129.752 75.767 130.463 76.1358 130.961 76.7264C131.458 77.317 131.701 78.081 131.635 78.8504C131.569 79.6198 131.2 80.3315 130.61 80.829Z" fill="white" fill-opacity="0.7"/>
<path d="M80.975 90.0206V60.9286C80.9842 60.4225 81.1225 59.9271 81.3768 59.4894C81.631 59.0517 81.9929 58.6862 82.4279 58.4276C83.0407 58.0639 83.766 57.9389 84.4651 58.0765C93.8567 59.614 104.837 56.9388 109.578 49.2897L109.575 5.32744C109.57 3.91641 109.008 2.56449 108.01 1.56649C107.013 0.568502 105.661 0.00540354 104.25 0H5.32488C3.91429 0.00539942 2.56302 0.568145 1.56559 1.56559C0.568145 2.56302 0.00539942 3.91429 0 5.32488V138.175C0.00539942 139.586 0.568145 140.937 1.56559 141.934C2.56302 142.932 3.91429 143.495 5.32488 143.5H104.25C105.661 143.495 107.012 142.932 108.009 141.934C109.007 140.937 109.57 139.586 109.575 138.175V127.351C101.383 125.111 94.1507 120.248 88.9854 113.506C83.8201 106.765 81.0064 98.5135 80.975 90.0206ZM31.7417 36.4593C31.7444 35.6887 32.0517 34.9505 32.5965 34.4057C33.1414 33.8608 33.8796 33.5535 34.6501 33.5508H45.2999V23.3085C45.3019 22.5371 45.6092 21.7978 46.1547 21.2524C46.7002 20.7069 47.4395 20.3995 48.2109 20.3975H61.3616C61.7441 20.3965 62.1229 20.4711 62.4764 20.6171C62.8299 20.763 63.1511 20.9775 63.4214 21.248C63.6917 21.5186 63.9058 21.8399 64.0515 22.1935C64.1971 22.5471 64.2714 22.9261 64.2701 23.3085V33.5508H74.948C75.719 33.5528 76.4578 33.8598 77.0032 34.4048C77.5486 34.9497 77.8563 35.6883 77.859 36.4593V49.9021C77.8563 50.6731 77.5486 51.4117 77.0032 51.9566C76.4578 52.5015 75.719 52.8085 74.948 52.8106H64.2701V63.0529C64.2711 63.4351 64.1965 63.8138 64.0507 64.1671C63.9049 64.5204 63.6907 64.8414 63.4205 65.1117C63.1502 65.382 62.8292 65.5962 62.4758 65.742C62.1225 65.8878 61.7439 65.9623 61.3616 65.9613H48.2109C47.4399 65.9593 46.701 65.6523 46.1556 65.1074C45.6102 64.5624 45.3026 63.8239 45.2999 63.0529V52.8106H34.6501C33.8796 52.8079 33.1414 52.5006 32.5965 51.9557C32.0517 51.4109 31.7444 50.6727 31.7417 49.9021V36.4593ZM13.6428 76.1472H75.8808C76.6521 76.1472 77.3919 76.4537 77.9373 76.9991C78.4828 77.5446 78.7892 78.2843 78.7892 79.0557C78.7892 79.8271 78.4828 80.5668 77.9373 81.1123C77.3919 81.6577 76.6521 81.9641 75.8808 81.9641H13.6453C12.8951 81.9326 12.186 81.6124 11.6663 81.0704C11.1466 80.5285 10.8564 79.8066 10.8564 79.0557C10.8564 78.3048 11.1466 77.5829 11.6663 77.0409C12.186 76.4989 12.8925 76.1787 13.6428 76.1472ZM13.6428 96.7164H75.2401C76.0115 96.7164 76.7513 97.0229 77.2967 97.5683C77.8421 98.1137 78.1486 98.8535 78.1486 99.6249C78.1486 100.396 77.8421 101.136 77.2967 101.681C76.7513 102.227 76.0115 102.533 75.2401 102.533H13.6453C12.8951 102.502 12.186 102.182 11.6663 101.64C11.1466 101.098 10.8564 100.376 10.8564 99.6249C10.8564 98.874 11.1466 98.1521 11.6663 97.6101C12.186 97.0681 12.8925 96.7479 13.6428 96.7164ZM81.4952 123.108H13.6453C12.8886 123.085 12.1703 122.769 11.643 122.226C11.1156 121.682 10.8207 120.955 10.8207 120.198C10.8207 119.441 11.1156 118.714 11.643 118.17C12.1703 117.627 12.8886 117.311 13.6453 117.288H81.4977C82.248 117.32 82.957 117.64 83.4768 118.182C83.9965 118.724 84.2866 119.446 84.2866 120.197C84.2866 120.948 83.9965 121.669 83.4768 122.211C82.957 122.753 82.248 123.074 81.4977 123.105L81.4952 123.108Z" fill="white" fill-opacity="0.7"/>
<path d="M109.895 48.7362C109.753 48.9195 109.652 49.1305 109.596 49.3556C109.541 49.5808 109.534 49.815 109.575 50.0431C109.578 49.5884 109.688 49.1407 109.895 48.7362Z" fill="white" fill-opacity="0.7"/>
</svg>
