<svg width="14" height="8" viewBox="0 0 14 8" fill="none" xmlns="http://www.w3.org/2000/svg">
<path d="M8.59805 6.2958L12.9251 1.7058C13.1007 1.51844 13.1992 1.26498 13.1992 1.0008C13.1992 0.736613 13.1007 0.483161 12.9251 0.295798C12.8374 0.20207 12.7332 0.127676 12.6183 0.0769073C12.5034 0.0261386 12.3802 1.52797e-07 12.2558 1.51261e-07C12.1313 1.49725e-07 12.0081 0.0261386 11.8932 0.0769073C11.7783 0.127676 11.6741 0.20207 11.5864 0.295798L7.26883 4.8958C7.18119 4.98953 7.07692 5.06392 6.96205 5.11469C6.84717 5.16546 6.72395 5.1916 6.5995 5.1916C6.47505 5.1916 6.35183 5.16546 6.23696 5.11469C6.12208 5.06392 6.01781 4.98953 5.93018 4.8958L1.61257 0.295798C1.4363 0.107495 1.19674 0.00117993 0.946575 0.000242245C0.696414 -0.00069544 0.456147 0.103822 0.278631 0.290799C0.101115 0.477777 0.000890775 0.731899 6.67814e-06 0.997263C-0.000877419 1.26263 0.0976533 1.5175 0.273919 1.7058L4.60096 6.2958C5.13123 6.8576 5.85004 7.17316 6.5995 7.17316C7.34896 7.17316 8.06777 6.8576 8.59805 6.2958Z" fill="#253164"/>
</svg>
