<svg width="20" height="20" viewBox="0 0 20 20" fill="none" xmlns="http://www.w3.org/2000/svg">
<path d="M18.2655 10.2591C18.2258 10.1785 18.2051 10.0899 18.2051 10.0001C18.2051 9.91024 18.2258 9.82161 18.2655 9.74103L19.0114 8.21506C19.4267 7.36542 19.0977 6.35273 18.2623 5.90949L16.7619 5.1134C16.6824 5.07155 16.6136 5.01199 16.5608 4.93932C16.508 4.86666 16.4726 4.78282 16.4574 4.6943L16.1639 3.02131C16.0005 2.08983 15.1389 1.46389 14.2027 1.59635L12.5209 1.83424C12.432 1.84709 12.3414 1.83934 12.2559 1.81158C12.1705 1.78381 12.0926 1.73679 12.0282 1.67413L10.8075 0.493195C10.1278 -0.164379 9.06295 -0.164418 8.38327 0.493195L7.1625 1.67424C7.09813 1.73689 7.02022 1.78391 6.93479 1.81167C6.84937 1.83943 6.75871 1.84719 6.66981 1.83436L4.98806 1.59647C4.05154 1.46393 3.19022 2.08994 3.02682 3.02142L2.73338 4.69434C2.71813 4.78286 2.68274 4.8667 2.62995 4.93937C2.57715 5.01204 2.50836 5.07161 2.42889 5.11348L0.928511 5.90957C0.0931248 6.35277 -0.235936 7.36554 0.179374 8.21518L0.925268 9.74111C0.964972 9.82169 0.985622 9.91032 0.985622 10.0002C0.985622 10.09 0.964972 10.1786 0.925268 10.2592L0.179335 11.7851C-0.235975 12.6348 0.0930856 13.6475 0.928471 14.0907L2.42885 14.8868C2.50833 14.9286 2.57713 14.9882 2.62993 15.0609C2.68274 15.1335 2.71813 15.2174 2.73338 15.3059L3.02682 16.9789C3.17557 17.8268 3.90267 18.4215 4.73833 18.4214C4.82064 18.4214 4.90415 18.4157 4.9881 18.4038L6.66984 18.1659C6.75875 18.153 6.84942 18.1608 6.93485 18.1886C7.02028 18.2163 7.09818 18.2634 7.16254 18.326L8.38327 19.507C8.72319 19.8358 9.15921 20.0002 9.59538 20.0001C10.0314 20.0001 10.4677 19.8357 10.8075 19.507L12.0282 18.326C12.16 18.1986 12.3395 18.1404 12.5209 18.1659L14.2027 18.4038C15.1393 18.5363 16.0005 17.9103 16.1639 16.9788L16.4574 15.3059C16.4727 15.2174 16.508 15.1336 16.5608 15.0609C16.6136 14.9882 16.6824 14.9286 16.7619 14.8868L18.2623 14.0907C19.0977 13.6475 19.4267 12.6347 19.0114 11.7851L18.2655 10.2591ZM7.28832 4.80926C8.4544 4.80926 9.40311 5.75797 9.40311 6.92406C9.40311 8.09014 8.4544 9.03885 7.28832 9.03885C6.12223 9.03885 5.17352 8.09014 5.17352 6.92406C5.17352 5.75797 6.12223 4.80926 7.28832 4.80926ZM6.19676 14.2143C6.08414 14.3269 5.93653 14.3832 5.78895 14.3832C5.64137 14.3832 5.49372 14.3269 5.38114 14.2143C5.15591 13.9891 5.15591 13.6239 5.38114 13.3986L12.9939 5.78582C13.2191 5.56059 13.5844 5.56059 13.8096 5.78582C14.0348 6.01105 14.0348 6.37625 13.8096 6.60148L6.19676 14.2143ZM11.9024 15.1909C10.7363 15.1909 9.78756 14.2422 9.78756 13.0761C9.78756 11.91 10.7363 10.9613 11.9024 10.9613C13.0684 10.9613 14.0171 11.91 14.0171 13.0761C14.0171 14.2422 13.0684 15.1909 11.9024 15.1909Z" fill="#3272DC"/>
</svg>
