<svg width="16" height="16" viewBox="0 0 16 16" fill="none" xmlns="http://www.w3.org/2000/svg">
<path d="M7.32303 0.514779C7.53611 -0.171592 8.46389 -0.171594 8.67697 0.514778L10.0775 5.02626C10.1728 5.33322 10.4461 5.54104 10.7545 5.54104H15.2868C15.9764 5.54104 16.2631 6.46455 15.7052 6.88875L12.0385 9.677C11.789 9.86671 11.6846 10.203 11.7799 10.5099L13.1805 15.0214C13.3936 15.7078 12.643 16.2785 12.0851 15.8543L8.41839 13.0661C8.16891 12.8764 7.83109 12.8764 7.58161 13.0661L3.91488 15.8543C3.35703 16.2785 2.60644 15.7078 2.81952 15.0214L4.22009 10.5099C4.31538 10.203 4.21099 9.86671 3.96151 9.677L0.294781 6.88875C-0.26307 6.46455 0.0236266 5.54104 0.713169 5.54104H5.2455C5.55387 5.54104 5.82717 5.33322 5.92247 5.02626L7.32303 0.514779Z" fill="#3272DC"/>
</svg>
