<svg width="120" height="120" viewBox="0 0 120 120" fill="none" xmlns="http://www.w3.org/2000/svg">
<g clip-path="url(#clip0_914_8189)">
<path d="M116.372 30.4336C113.222 18.8391 101.163 6.77812 89.5664 3.62812C82.4555 1.85625 72.9305 0.0304687 60 0C47.0695 0.0304687 37.5445 1.85625 30.4336 3.62812C18.8391 6.77812 6.77812 18.8367 3.62812 30.4336C1.85625 37.5445 0.0304687 47.0695 0 60C0.0304687 72.9305 1.85625 82.4555 3.62812 89.5664C6.77812 101.163 18.8391 113.222 30.4336 116.372C37.5445 118.144 47.0742 119.97 60 120C72.9281 119.97 82.4555 118.144 89.5664 116.372C101.163 113.222 113.222 101.163 116.372 89.5664C118.144 82.4555 119.97 72.9258 120 60C119.97 47.0695 118.144 37.5445 116.372 30.4336Z" fill="#F6F7FD"/>
<path d="M96.3961 52.0969C94.7445 50.4906 93.0891 48.8789 91.4297 47.2617C91.3828 45.0164 91.3242 42.7695 91.2539 40.5211C91.1602 37.5141 89.8617 34.6453 87.6305 32.4141C85.4815 30.2206 82.5775 28.9282 79.5094 28.8C77.2562 28.7297 75.0047 28.6711 72.7547 28.6242C71.1266 26.9742 69.5148 25.3234 67.9195 23.6719C66.9073 22.5841 65.6818 21.7165 64.3194 21.1233C62.9571 20.5301 61.4871 20.2239 60.0012 20.2239C58.5153 20.2239 57.0453 20.5301 55.6829 21.1233C54.3206 21.7165 53.0951 22.5841 52.0828 23.6719C50.4859 25.325 48.8711 26.9797 47.2383 28.6359C44.9883 28.6797 42.7383 28.7375 40.4883 28.8094C34.2891 29.0203 28.9547 34.343 28.7437 40.5281C28.6734 42.7734 28.6148 45.0203 28.568 47.2688C26.9102 48.8891 25.2547 50.4992 23.6016 52.0992C21.3961 54.2438 20.1562 57.0375 20.1562 60C20.166 61.4819 20.4764 62.9464 21.0686 64.3048C21.6608 65.6633 22.5225 66.8874 23.6016 67.9031C25.2547 69.5016 26.9102 71.1102 28.568 72.7289C28.6148 74.9789 28.6734 77.2281 28.7437 79.4766C28.8375 82.4883 30.1359 85.35 32.3648 87.5836C34.515 89.7769 37.4196 91.0691 40.4883 91.1977C42.7414 91.268 44.993 91.3266 47.243 91.3735C48.8727 93.0266 50.4844 94.6781 52.0781 96.3281C53.0914 97.4155 54.3176 98.2826 55.6805 98.8755C57.0434 99.4684 58.5137 99.7744 60 99.7744C61.4863 99.7744 62.9566 99.4684 64.3195 98.8755C65.6824 98.2826 66.9086 97.4155 67.9219 96.3281C69.525 94.6797 71.1383 93.0274 72.7617 91.3711C75.0117 91.3258 77.2617 91.268 79.5117 91.1977C85.7086 90.9867 91.0453 85.6594 91.2562 79.4789C91.3266 77.2336 91.3852 74.9875 91.432 72.7406C93.0898 71.1219 94.7453 69.5086 96.3984 67.9008C97.4764 66.8847 98.3373 65.6608 98.9295 64.3029C99.5216 62.945 99.8326 61.4813 99.8438 60C99.8438 57.0328 98.6039 54.2391 96.3961 52.0969Z" fill="#3272DC"/>
<path d="M76.1858 46.8142C75.6643 46.2929 74.957 46 74.2196 46C73.4822 46 72.775 46.2929 72.2535 46.8142L59.5 59.5677L46.7465 46.8142C46.225 46.2929 45.5178 46 44.7804 46C44.043 46 43.3357 46.2929 42.8142 46.8142C42.2929 47.3357 42 48.043 42 48.7804C42 49.5178 42.2929 50.225 42.8142 50.7465L55.5677 63.5L42.8142 76.2535C42.2929 76.775 42 77.4822 42 78.2196C42 78.957 42.2929 79.6643 42.8142 80.1858C43.3357 80.7071 44.043 81 44.7804 81C45.5178 81 46.225 80.7071 46.7465 80.1858L59.5 67.4323L72.2535 80.1858C72.775 80.7071 73.4822 81 74.2196 81C74.957 81 75.6643 80.7071 76.1858 80.1858C76.7071 79.6643 77 78.957 77 78.2196C77 77.4822 76.7071 76.775 76.1858 76.2535L63.4323 63.5L76.1858 50.7465C76.7071 50.225 77 49.5178 77 48.7804C77 48.043 76.7071 47.3357 76.1858 46.8142Z" fill="white"/>
</g>
<defs>
<clipPath id="clip0_914_8189">
<rect width="120" height="120" fill="white"/>
</clipPath>
</defs>
</svg>
