<svg width="48" height="48" viewBox="0 0 48 48" fill="none" xmlns="http://www.w3.org/2000/svg">
<g clip-path="url(#clip0_894_3285)">
<circle cx="24" cy="24" r="23" fill="white" stroke="#EAEAEA" stroke-width="2"/>
<path d="M37.1438 26.1197L32.6646 30.7092C32.4818 30.8955 32.2344 31 31.9766 31C31.7188 31 31.4715 30.8955 31.2887 30.7092C31.1972 30.6163 31.1246 30.5057 31.0751 30.3838C31.0255 30.262 31 30.1313 31 29.9993C31 29.8673 31.0255 29.7366 31.0751 29.6148C31.1246 29.4929 31.1972 29.3823 31.2887 29.2894L35.7776 24.7098C35.8691 24.6169 35.9417 24.5063 35.9912 24.3844C36.0408 24.2626 36.0663 24.1319 36.0663 23.9999C36.0663 23.8679 36.0408 23.7372 35.9912 23.6153C35.9417 23.4935 35.8691 23.3829 35.7776 23.29L31.2887 18.7104C31.1049 18.5234 31.0012 18.2693 31.0002 18.004C30.9993 17.7387 31.1013 17.4838 31.2838 17.2955C31.4662 17.1072 31.7142 17.0009 31.9732 17C32.2321 16.9991 32.4809 17.1036 32.6646 17.2905L37.1438 21.8801C37.6921 22.4425 38 23.205 38 23.9999C38 24.7948 37.6921 25.5572 37.1438 26.1197Z" fill="#253164"/>
<path d="M10.8562 26.1197L15.3354 30.7092C15.5182 30.8955 15.7656 31 16.0234 31C16.2812 31 16.5285 30.8955 16.7113 30.7092C16.8028 30.6163 16.8754 30.5057 16.9249 30.3838C16.9745 30.262 17 30.1313 17 29.9993C17 29.8673 16.9745 29.7366 16.9249 29.6148C16.8754 29.4929 16.8028 29.3823 16.7113 29.2894L12.2224 24.7098C12.1309 24.6169 12.0583 24.5063 12.0088 24.3844C11.9592 24.2626 11.9337 24.1319 11.9337 23.9999C11.9337 23.8679 11.9592 23.7372 12.0088 23.6153C12.0583 23.4935 12.1309 23.3829 12.2224 23.29L16.7113 18.7104C16.8951 18.5234 16.9988 18.2693 16.9998 18.004C17.0007 17.7387 16.8987 17.4838 16.7162 17.2955C16.5338 17.1072 16.2858 17.0009 16.0268 17C15.7679 16.9991 15.5191 17.1036 15.3354 17.2905L10.8562 21.8801C10.3079 22.4425 10 23.205 10 23.9999C10 24.7948 10.3079 25.5572 10.8562 26.1197Z" fill="#253164"/>
</g>
<defs>
<clipPath id="clip0_894_3285">
<rect width="48" height="48" fill="white"/>
</clipPath>
</defs>
</svg>
