<svg width="20" height="20" viewBox="0 0 20 20" fill="none" xmlns="http://www.w3.org/2000/svg">
<path d="M17.9585 3.72691C17.0933 2.86014 15.9589 2.31345 14.7419 2.17664C13.5248 2.03983 12.2974 2.32105 11.2613 2.97409L13.4318 5.18368C13.5185 5.27963 13.5853 5.39184 13.6284 5.5138C13.6714 5.63576 13.6898 5.76504 13.6826 5.89417C13.6753 6.0233 13.6425 6.14969 13.586 6.26605C13.5295 6.3824 13.4505 6.48639 13.3536 6.572C13.1728 6.73143 12.9396 6.81848 12.6985 6.81643C12.5605 6.81748 12.4237 6.78927 12.2973 6.73366C12.171 6.67805 12.0578 6.5963 11.9653 6.49379L9.20818 3.72691C8.81281 3.33191 8.35744 3.00193 7.85896 2.74922C6.84193 2.2282 5.68616 2.04218 4.557 2.21779C3.42785 2.3934 2.38316 2.92163 1.57239 3.72691C0.557841 4.90785 0 6.41321 0 7.9701C0 9.527 0.557841 11.0324 1.57239 12.2133C3.3909 14.1687 7.81008 18.6954 9.7948 18.6954C11.3396 18.6954 14.3704 15.9481 16.4724 13.8069C17.0004 13.279 17.4501 12.8292 17.8412 12.3893L17.9879 12.2328C19.0036 11.0471 19.5594 9.53576 19.554 7.97443C19.5486 6.4131 18.9824 4.90568 17.9585 3.72691ZM11.7209 12.1351H10.7432V13.1128C10.7432 13.3721 10.6402 13.6208 10.4568 13.8041C10.2734 13.9875 10.0248 14.0905 9.76546 14.0905C9.50616 14.0905 9.25748 13.9875 9.07413 13.8041C8.89078 13.6208 8.78777 13.3721 8.78777 13.1128V12.1351H7.81008C7.55078 12.1351 7.3021 12.0321 7.11874 11.8487C6.93539 11.6654 6.83238 11.4167 6.83238 11.1574C6.83238 10.8981 6.93539 10.6494 7.11874 10.4661C7.3021 10.2827 7.55078 10.1797 7.81008 10.1797H8.78777V9.202C8.78777 8.9427 8.89078 8.69402 9.07413 8.51066C9.25748 8.32731 9.50616 8.2243 9.76546 8.2243C10.0248 8.2243 10.2734 8.32731 10.4568 8.51066C10.6402 8.69402 10.7432 8.9427 10.7432 9.202V10.1797H11.7209C11.9802 10.1797 12.2288 10.2827 12.4122 10.4661C12.5955 10.6494 12.6985 10.8981 12.6985 11.1574C12.6985 11.4167 12.5955 11.6654 12.4122 11.8487C12.2288 12.0321 11.9802 12.1351 11.7209 12.1351Z" fill="#3272DC"/>
</svg>
