<svg width="24" height="24" viewBox="0 0 24 24" fill="none" xmlns="http://www.w3.org/2000/svg">
<path d="M12 2C16.8705 2 21 6.03297 21 10.9258C21 15.8965 16.8033 19.3847 12.927 21.7567C12.6445 21.9161 12.3251 22 12 22C11.6749 22 11.3555 21.9161 11.073 21.7567C7.20389 19.3616 3 15.9136 3 10.9258C3 6.03297 7.12944 2 12 2Z" fill="#3272DC" stroke="#3272DC" stroke-width="1.5"/>
<path d="M15.5 11C15.5 12.933 13.9329 14.5 12 14.5C10.067 14.5 8.5 12.933 8.5 11C8.5 9.067 10.067 7.5 12 7.5C13.9329 7.5 15.5 9.067 15.5 11Z" fill="#F4F4F4" stroke="#F4F4F4" stroke-width="1.5"/>
</svg>
