<svg width="19" height="20" viewBox="0 0 19 20" fill="none" xmlns="http://www.w3.org/2000/svg">
<path d="M16.5521 13.92C15.3439 12.8866 14.1178 12.2607 12.9244 13.2925L12.2118 13.9161C11.6904 14.3688 10.7211 16.4839 6.97317 12.1725C3.22604 7.86654 5.4559 7.1961 5.97804 6.74732L6.69453 6.12293C7.88165 5.08878 7.43365 3.78693 6.57746 2.44683L6.06078 1.63512C5.20068 0.298149 4.26409 -0.579899 3.07385 0.452686L2.43073 1.01464C1.90468 1.39786 0.434238 2.64352 0.0775551 5.00995C-0.351713 7.84937 1.00243 11.1009 4.10487 14.6685C7.20341 18.2377 10.2372 20.0304 13.1109 19.9992C15.4992 19.9735 16.9416 18.6919 17.3927 18.226L18.0381 17.6632C19.2253 16.6314 18.4877 15.5809 17.2787 14.5452L16.5521 13.92Z" fill="#253164"/>
</svg>
