   <svg width="30" height="25" viewBox="0 0 30 25" fill="none" xmlns="http://www.w3.org/2000/svg">
       <path fill-rule="evenodd" clip-rule="evenodd"
           d="M30 12.5C30 11.8096 29.4404 11.25 28.75 11.25H1.25C0.559645 11.25 0 11.8096 0 12.5C0 13.1904 0.559645 13.75 1.25 13.75H28.75C29.4404 13.75 30 13.1904 30 12.5Z"
           fill="currentColor" />
       <path fill-rule="evenodd" clip-rule="evenodd"
           d="M13.3839 0.366117C12.8957 -0.122039 12.1043 -0.122039 11.6161 0.366117L0.366117 11.6161C-0.122037 12.1043 -0.122037 12.8957 0.366117 13.3839L11.6161 24.6339C12.1043 25.122 12.8957 25.122 13.3839 24.6339C13.872 24.1457 13.872 23.3543 13.3839 22.8661L3.01777 12.5L13.3839 2.13388C13.872 1.64573 13.872 0.854272 13.3839 0.366117Z"
           fill="currentColor" />
   </svg>