<svg width="16" height="16" viewBox="0 0 16 16" fill="none" xmlns="http://www.w3.org/2000/svg">
<path d="M10.3884 6.40212L7.18902 3.20269C7.05842 3.07287 6.88175 3 6.6976 3C6.51345 3 6.33678 3.07287 6.20618 3.20269C6.14085 3.26749 6.089 3.34459 6.05361 3.42953C6.01822 3.51447 6 3.60558 6 3.6976C6 3.78961 6.01822 3.88072 6.05361 3.96566C6.089 4.0506 6.14085 4.1277 6.20618 4.1925L9.41258 7.38495C9.47791 7.44975 9.52977 7.52685 9.56516 7.61179C9.60055 7.69673 9.61877 7.78784 9.61877 7.87985C9.61877 7.97187 9.60055 8.06298 9.56516 8.14792C9.52977 8.23286 9.47791 8.30995 9.41258 8.37475L6.20618 11.5672C6.07493 11.6975 6.00082 11.8747 6.00017 12.0596C5.99952 12.2446 6.07237 12.4223 6.2027 12.5535C6.33303 12.6848 6.51016 12.7589 6.69514 12.7595C6.88011 12.7602 7.05776 12.6873 7.18902 12.557L10.3884 9.35758C10.78 8.9655 11 8.434 11 7.87985C11 7.3257 10.78 6.79421 10.3884 6.40212Z" fill="#223070"/>
</svg>
