<svg width="16" height="16" viewBox="0 0 16 16" fill="none" xmlns="http://www.w3.org/2000/svg">
<path d="M7.49254 0.353308C7.66686 -0.11777 8.33314 -0.117769 8.50746 0.353309L10.3494 5.33096C10.4042 5.47907 10.5209 5.59584 10.669 5.65064L15.6467 7.49254C16.1178 7.66686 16.1178 8.33314 15.6467 8.50746L10.669 10.3494C10.5209 10.4042 10.4042 10.5209 10.3494 10.669L8.50746 15.6467C8.33314 16.1178 7.66686 16.1178 7.49254 15.6467L5.65064 10.669C5.59584 10.5209 5.47907 10.4042 5.33096 10.3494L0.353308 8.50746C-0.11777 8.33314 -0.117769 7.66686 0.353309 7.49254L5.33096 5.65064C5.47907 5.59584 5.59584 5.47907 5.65064 5.33096L7.49254 0.353308Z" fill="#3272DC"/>
</svg>
