<svg width="213" height="40" viewBox="0 0 213 40" fill="none" xmlns="http://www.w3.org/2000/svg">
<g clip-path="url(#clip0_2016_134)">
<path fill-rule="evenodd" clip-rule="evenodd" d="M20 1.39437e-07C18.9055 1.39437e-07 17.8109 0.327273 16.8727 0.985455L2.32727 11.1673C1.6086 11.6702 1.0218 12.339 0.616664 13.117C0.211525 13.895 -9.75385e-06 14.7592 3.3732e-10 15.6364V34.5455C3.37321e-10 35.9921 0.574674 37.3795 1.5976 38.4024C2.62053 39.4253 4.00791 40 5.45455 40H12.7273C13.2095 40 13.6719 39.8084 14.0129 39.4675C14.3539 39.1265 14.5455 38.664 14.5455 38.1818V30.9091C14.5455 29.9447 14.9286 29.0197 15.6105 28.3378C16.2925 27.6558 17.2174 27.2727 18.1818 27.2727H21.8182C22.7826 27.2727 23.7075 27.6558 24.3895 28.3378C25.0714 29.0197 25.4545 29.9447 25.4545 30.9091V38.1818C25.4545 38.664 25.6461 39.1265 25.9871 39.4675C26.3281 39.8084 26.7905 40 27.2727 40H34.5455C35.9921 40 37.3795 39.4253 38.4024 38.4024C39.4253 37.3795 40 35.9921 40 34.5455V15.6364C40 14.7592 39.7885 13.895 39.3833 13.117C38.9782 12.339 38.3914 11.6702 37.6727 11.1673L23.1273 0.985455C22.2107 0.343802 21.1189 -0.000252865 20 1.39437e-07ZM20.9091 9.09091C21.1502 9.09091 21.3814 9.18669 21.5519 9.35718C21.7224 9.52766 21.8182 9.75889 21.8182 10V12.7273H24.5455C24.7866 12.7273 25.0178 12.8231 25.1883 12.9935C25.3588 13.164 25.4545 13.3953 25.4545 13.6364V15.4545C25.4545 15.6957 25.3588 15.9269 25.1883 16.0974C25.0178 16.2679 24.7866 16.3636 24.5455 16.3636H21.8182V19.0909C21.8182 19.332 21.7224 19.5632 21.5519 19.7337C21.3814 19.9042 21.1502 20 20.9091 20H19.0909C18.8498 20 18.6186 19.9042 18.4481 19.7337C18.2776 19.5632 18.1818 19.332 18.1818 19.0909V16.3636H15.4545C15.2134 16.3636 14.9822 16.2679 14.8117 16.0974C14.6412 15.9269 14.5455 15.6957 14.5455 15.4545V13.6364C14.5455 13.3953 14.6412 13.164 14.8117 12.9935C14.9822 12.8231 15.2134 12.7273 15.4545 12.7273H18.1818V10C18.1818 9.75889 18.2776 9.52766 18.4481 9.35718C18.6186 9.18669 18.8498 9.09091 19.0909 9.09091H20.9091Z" fill="#3272DC"/>
</g>
<path d="M203.067 40C201.055 40 199.33 39.5333 197.891 38.6C196.452 37.6542 195.34 36.3787 194.554 34.7733C193.781 33.168 193.395 31.3573 193.395 29.3413C193.395 27.3253 193.781 25.5147 194.554 23.9093C195.34 22.304 196.452 21.0409 197.891 20.12C199.33 19.1867 201.049 18.72 203.047 18.72C205.086 18.72 206.798 19.1804 208.183 20.1013C209.569 21.0222 210.615 22.2853 211.321 23.8907C212.04 25.496 212.4 27.3129 212.4 29.3413C212.4 31.3449 212.04 33.1555 211.321 34.7733C210.615 36.3787 209.569 37.6542 208.183 38.6C206.798 39.5333 205.092 40 203.067 40ZM203.507 36.9573C204.959 36.9573 206.151 36.6338 207.084 35.9867C208.017 35.3271 208.703 34.4249 209.142 33.28C209.595 32.1227 209.822 30.8098 209.822 29.3413C209.822 27.848 209.595 26.5351 209.142 25.4027C208.703 24.2578 208.023 23.368 207.104 22.7333C206.185 22.0862 205.019 21.7627 203.607 21.7627C202.141 21.7627 200.929 22.0987 199.969 22.7707C199.024 23.4427 198.317 24.3511 197.851 25.496C197.398 26.6409 197.172 27.9227 197.172 29.3413C197.172 30.7724 197.405 32.0667 197.871 33.224C198.337 34.3689 199.037 35.2773 199.969 35.9493C200.915 36.6213 202.094 36.9573 203.507 36.9573ZM209.822 39.44V24.6H209.422V12.56H212.999V39.44H209.822Z" fill="#A7B7D2"/>
<path d="M185.595 39.44V29.3413C185.595 28.3831 185.502 27.4622 185.315 26.5787C185.142 25.6951 184.829 24.9049 184.376 24.208C183.936 23.4987 183.337 22.9387 182.578 22.528C181.831 22.1173 180.885 21.912 179.74 21.912C178.847 21.912 178.034 22.0551 177.302 22.3413C176.582 22.6151 175.963 23.0382 175.443 23.6107C174.923 24.1831 174.517 24.9049 174.224 25.776C173.944 26.6347 173.804 27.6489 173.804 28.8187L171.466 28.1467C171.466 26.1929 171.839 24.5191 172.585 23.1253C173.345 21.7191 174.404 20.6427 175.763 19.896C177.135 19.1369 178.747 18.7573 180.599 18.7573C181.998 18.7573 183.19 18.9627 184.176 19.3733C185.162 19.784 185.982 20.3316 186.634 21.016C187.287 21.688 187.8 22.4471 188.173 23.2933C188.546 24.1271 188.806 24.9796 188.953 25.8507C189.112 26.7093 189.192 27.5244 189.192 28.296V39.44H185.595ZM170.207 39.44V19.28H173.405V24.6747H173.804V39.44H170.207Z" fill="#A7B7D2"/>
<path d="M153.481 40C151.869 40 150.516 39.7262 149.424 39.1787C148.345 38.6187 147.525 37.8844 146.966 36.976C146.42 36.0676 146.146 35.072 146.146 33.9893C146.146 32.9316 146.36 32.0169 146.786 31.2453C147.226 30.4613 147.839 29.8142 148.625 29.304C149.411 28.7813 150.35 28.3707 151.442 28.072C152.468 27.8107 153.614 27.5867 154.88 27.4C156.159 27.2009 157.451 27.0204 158.757 26.8587C160.062 26.6969 161.282 26.5413 162.414 26.392L161.135 27.0827C161.175 25.2907 160.789 23.9653 159.976 23.1067C159.176 22.248 157.791 21.8187 155.819 21.8187C154.513 21.8187 153.368 22.0987 152.382 22.6587C151.409 23.2062 150.723 24.1022 150.323 25.3467L146.946 24.3947C147.465 22.6276 148.471 21.24 149.964 20.232C151.456 19.224 153.421 18.72 155.859 18.72C157.817 18.72 159.496 19.0498 160.895 19.7093C162.307 20.3565 163.32 21.3396 163.933 22.6587C164.239 23.2809 164.432 23.9591 164.512 24.6933C164.592 25.4151 164.632 26.1742 164.632 26.9707V39.44H161.475V34.6053L162.214 35.0533C161.401 36.6836 160.262 37.9156 158.797 38.7493C157.345 39.5831 155.573 40 153.481 40ZM154.02 37.2187C155.299 37.2187 156.405 37.0071 157.338 36.584C158.284 36.1484 159.043 35.5822 159.616 34.8853C160.189 34.176 160.562 33.4044 160.735 32.5707C160.935 31.9484 161.042 31.2578 161.055 30.4987C161.082 29.7271 161.095 29.136 161.095 28.7253L162.334 29.2293C161.175 29.3787 160.036 29.5218 158.917 29.6587C157.798 29.7956 156.738 29.9449 155.739 30.1067C154.74 30.256 153.841 30.4364 153.041 30.648C152.455 30.8222 151.902 31.0462 151.382 31.32C150.876 31.5938 150.463 31.9484 150.143 32.384C149.837 32.8071 149.684 33.336 149.684 33.9707C149.684 34.5182 149.83 35.0409 150.123 35.5387C150.43 36.0364 150.896 36.4409 151.522 36.752C152.162 37.0631 152.995 37.2187 154.02 37.2187Z" fill="#A7B7D2"/>
<path d="M137.391 39.44V12H140.948V39.44H137.391Z" fill="#A7B7D2"/>
<path d="M121.059 40C119.047 40 117.322 39.5333 115.883 38.6C114.444 37.6542 113.332 36.3787 112.546 34.7733C111.773 33.168 111.387 31.3573 111.387 29.3413C111.387 27.3253 111.773 25.5147 112.546 23.9093C113.332 22.304 114.444 21.0409 115.883 20.12C117.322 19.1867 119.041 18.72 121.039 18.72C123.078 18.72 124.79 19.1804 126.175 20.1013C127.561 21.0222 128.607 22.2853 129.313 23.8907C130.032 25.496 130.392 27.3129 130.392 29.3413C130.392 31.3449 130.032 33.1555 129.313 34.7733C128.607 36.3787 127.561 37.6542 126.175 38.6C124.79 39.5333 123.084 40 121.059 40ZM121.499 36.9573C122.951 36.9573 124.144 36.6338 125.076 35.9867C126.009 35.3271 126.695 34.4249 127.135 33.28C127.588 32.1227 127.814 30.8098 127.814 29.3413C127.814 27.848 127.588 26.5351 127.135 25.4027C126.695 24.2578 126.015 23.368 125.096 22.7333C124.177 22.0862 123.011 21.7627 121.599 21.7627C120.133 21.7627 118.921 22.0987 117.962 22.7707C117.016 23.4427 116.31 24.3511 115.843 25.496C115.39 26.6409 115.164 27.9227 115.164 29.3413C115.164 30.7724 115.397 32.0667 115.863 33.224C116.33 34.3689 117.029 35.2773 117.962 35.9493C118.908 36.6213 120.087 36.9573 121.499 36.9573ZM127.814 39.44V24.6H127.414V12.56H130.992V39.44H127.814Z" fill="#253164"/>
<path d="M97.9249 40C95.8065 40 93.9546 39.5644 92.3692 38.6933C90.7971 37.8098 89.5714 36.584 88.692 35.016C87.8127 33.4356 87.373 31.5938 87.373 29.4907C87.373 27.288 87.806 25.384 88.672 23.7787C89.538 22.1609 90.7438 20.9165 92.2893 20.0453C93.8481 19.1618 95.6733 18.72 97.765 18.72C99.9367 18.72 101.782 19.1867 103.301 20.12C104.833 21.0533 105.979 22.3849 106.738 24.1147C107.511 25.8444 107.844 27.904 107.737 30.2933H104.14V29.0987C104.1 26.6222 103.561 24.7742 102.521 23.5547C101.482 22.3227 99.9367 21.7067 97.8849 21.7067C95.6866 21.7067 94.0146 22.3662 92.8688 23.6853C91.723 25.0044 91.1501 26.896 91.1501 29.36C91.1501 31.7369 91.723 33.5787 92.8688 34.8853C94.0146 36.192 95.6467 36.8453 97.765 36.8453C99.1906 36.8453 100.43 36.5404 101.482 35.9307C102.535 35.3209 103.361 34.4436 103.96 33.2987L107.378 34.4C106.538 36.1796 105.273 37.5609 103.581 38.544C101.902 39.5147 100.017 40 97.9249 40ZM89.9511 30.2933V27.624H105.899V30.2933H89.9511Z" fill="#253164"/>
<path d="M79.5857 39.44L79.6057 26.5413C79.6057 25.0356 79.1727 23.8596 78.3067 23.0133C77.454 22.1547 76.3416 21.7253 74.9693 21.7253C74.1699 21.7253 73.4105 21.8996 72.691 22.248C71.9716 22.584 71.3854 23.1191 70.9324 23.8533C70.4794 24.5751 70.2529 25.5022 70.2529 26.6347L68.3744 25.9253C68.3477 24.4942 68.6608 23.2436 69.3137 22.1733C69.9798 21.0907 70.8858 20.2507 72.0316 19.6533C73.1773 19.056 74.4697 18.7573 75.9086 18.7573C78.1602 18.7573 79.9321 19.3982 81.2245 20.68C82.5168 21.9493 83.163 23.6604 83.163 25.8133L83.143 39.44H79.5857ZM53.7656 39.44V19.28H56.9432V24.6747H57.3429V39.44H53.7656ZM66.6957 39.44L66.7157 26.672C66.7157 25.1289 66.2893 23.9218 65.4366 23.0507C64.584 22.1671 63.4515 21.7253 62.0393 21.7253C60.6403 21.7253 59.5079 22.1733 58.6419 23.0693C57.7759 23.9653 57.3429 25.1538 57.3429 26.6347L55.4643 25.5893C55.4643 24.2827 55.7974 23.1129 56.4635 22.08C57.1297 21.0471 58.0357 20.2382 59.1815 19.6533C60.3272 19.056 61.6262 18.7573 63.0785 18.7573C64.5307 18.7573 65.7964 19.0436 66.8755 19.616C67.9547 20.1884 68.7874 21.0098 69.3736 22.08C69.9598 23.1378 70.2529 24.4009 70.2529 25.8693L70.2329 39.44H66.6957Z" fill="#253164"/>
<defs>
<clipPath id="clip0_2016_134">
<rect width="40" height="40" fill="white"/>
</clipPath>
</defs>
</svg>
